<svg xmlns="http://www.w3.org/2000/svg" version="1.1" viewBox="0.19644808769226074 0 491.2431945800781 399.5532531738281" width="493.00" height="400.00">
<g stroke-width="2.00" fill="none" stroke-linecap="butt">
<path stroke="#528c95" stroke-opacity="0.992" d="&#10;  M 173.38 166.99&#10;  Q 161.64 172.23 149.18 174.24&#10;  Q 133.55 176.77 118.00 180.19"/>
<path stroke="#4d798c" stroke-opacity="0.992" d="&#10;  M 440.71 176.31&#10;  Q 433.72 181.03 430.55 182.52&#10;  C 408.07 193.07 383.84 199.89 358.95 201.86&#10;  C 347.62 202.76 334.63 204.01 321.44 206.40&#10;  C 233.79 222.30 138.66 240.10 46.87 256.59&#10;  C 38.46 258.10 30.56 259.92 22.43 261.83"/>
<path stroke="#3c4d6d" stroke-opacity="0.992" d="&#10;  M 402.34 254.42&#10;  Q 385.20 262.07 366.76 264.70&#10;  Q 340.22 268.49 313.64 272.01"/>
<path stroke="#333954" stroke-opacity="0.992" d="&#10;  M 430.76 327.67&#10;  Q 422.64 331.12 417.08 332.52&#10;  Q 372.81 343.69 327.22 346.27"/>
<path stroke="#2d2d3f" stroke-opacity="0.992" d="&#10;  M 439.84 345.43&#10;  Q 427.66 349.09 419.25 350.93&#10;  Q 380.18 359.50 336.99 365.07"/>
<path stroke="#58a19f" stroke-opacity="0.992" d="&#10;  M 320.11 36.58&#10;  Q 299.92 44.11 281.99 47.79&#10;  Q 261.20 52.06 245.83 55.92&#10;  Q 234.64 58.73 222.71 64.09"/>
<path stroke="#549399" stroke-opacity="0.992" d="&#10;  M 337.86 83.11&#10;  Q 318.16 92.54 297.16 96.39&#10;  Q 290.23 97.67 271.87 99.53&#10;  Q 256.67 101.06 239.59 108.81"/>
</g>
<path fill="#5aa9a2" fill-opacity="0.992" d="&#10;  M 299.76 0.00&#10;  Q 307.33 1.83 310.20 9.55&#10;  Q 317.23 28.45 320.11 36.58&#10;  Q 299.92 44.11 281.99 47.79&#10;  Q 261.20 52.06 245.83 55.92&#10;  Q 234.64 58.73 222.71 64.09&#10;  C 215.24 45.08 208.51 25.57 195.79 10.20&#10;  Q 193.40 7.31 192.07 5.40&#10;  A 1.40 1.39 -59.6 0 1 191.83 4.47&#10;  Q 192.13 1.12 195.42 0.00&#10;  L 299.76 0.00&#10;  Z"/>
<path fill="#55989b" fill-opacity="0.992" d="&#10;  M 173.38 166.99&#10;  Q 161.64 172.23 149.18 174.24&#10;  Q 133.55 176.77 118.00 180.19&#10;  Q 126.19 159.20 134.85 138.36&#10;  Q 134.86 138.33 135.23 137.37&#10;  Q 139.12 127.43 150.91 97.70&#10;  Q 176.67 32.74 179.79 25.45&#10;  Q 180.60 23.59 181.39 22.33&#10;  A 1.12 1.11 -49.1 0 1 183.18 22.20&#10;  Q 192.10 32.69 198.15 43.87&#10;  Q 205.81 58.05 210.34 74.21&#10;  Q 210.66 75.37 209.54 77.99&#10;  Q 207.26 83.33 178.48 154.36&#10;  Q 175.89 160.74 173.38 166.99&#10;  Z"/>
<path fill="#55989b" fill-opacity="0.992" d="&#10;  M 320.11 36.58&#10;  L 337.86 83.11&#10;  Q 318.16 92.54 297.16 96.39&#10;  Q 290.23 97.67 271.87 99.53&#10;  Q 256.67 101.06 239.59 108.81&#10;  L 222.71 64.09&#10;  Q 234.64 58.73 245.83 55.92&#10;  Q 261.20 52.06 281.99 47.79&#10;  Q 299.92 44.11 320.11 36.58&#10;  Z"/>
<path fill="#538e97" fill-opacity="0.992" d="&#10;  M 239.59 108.81&#10;  Q 256.67 101.06 271.87 99.53&#10;  Q 290.23 97.67 297.16 96.39&#10;  Q 318.16 92.54 337.86 83.11&#10;  L 363.68 151.04&#10;  A 1.41 1.41 0.0 0 1 362.29 152.95&#10;  Q 356.12 152.67 350.51 153.66&#10;  A 14.01 13.56 -49.5 0 1 348.42 153.86&#10;  Q 339.53 153.99 333.29 155.33&#10;  C 330.20 156.00 327.76 155.77 325.01 156.54&#10;  Q 319.92 157.95 316.57 158.16&#10;  A 9.45 9.05 -55.1 0 0 314.18 158.64&#10;  C 310.93 159.76 307.22 160.14 303.55 161.09&#10;  C 291.96 164.10 278.23 167.63 266.02 171.92&#10;  A 2.13 2.13 0.0 0 1 263.33 170.67&#10;  L 239.59 108.81&#10;  Z"/>
<path fill="#4e7f8e" fill-opacity="0.992" d="&#10;  M 440.71 176.31&#10;  Q 433.72 181.03 430.55 182.52&#10;  C 408.07 193.07 383.84 199.89 358.95 201.86&#10;  C 347.62 202.76 334.63 204.01 321.44 206.40&#10;  C 233.79 222.30 138.66 240.10 46.87 256.59&#10;  C 38.46 258.10 30.56 259.92 22.43 261.83&#10;  Q 8.49 243.61 3.62 221.09&#10;  Q -0.27 203.15 0.26 184.24&#10;  Q 0.32 182.08 1.25 179.49&#10;  A 0.17 0.17 0.0 0 1 1.57 179.50&#10;  Q 4.35 189.68 5.22 191.85&#10;  C 12.08 208.88 22.90 221.42 40.17 229.33&#10;  Q 50.25 233.95 59.56 235.60&#10;  C 63.11 236.23 67.06 237.01 71.18 237.21&#10;  Q 82.02 237.73 92.75 237.07&#10;  Q 94.51 236.96 96.59 236.42&#10;  A 7.32 7.24 -52.2 0 1 98.48 236.17&#10;  C 103.30 236.15 109.03 234.44 113.98 233.90&#10;  Q 116.88 233.59 121.14 232.33&#10;  A 5.22 4.67 32.2 0 1 122.32 232.13&#10;  C 125.21 232.02 128.74 230.49 131.83 229.98&#10;  Q 133.99 229.62 137.05 228.42&#10;  A 5.17 5.01 -57.8 0 1 138.41 228.09&#10;  Q 139.37 227.99 139.68 227.89&#10;  Q 172.50 217.74 206.21 204.71&#10;  Q 217.23 200.45 229.22 196.12&#10;  Q 244.51 190.59 245.77 190.09&#10;  Q 250.75 188.13 271.61 181.33&#10;  Q 277.50 179.40 282.75 178.01&#10;  Q 293.72 175.11 294.22 174.95&#10;  C 297.11 174.00 300.65 173.77 303.98 172.53&#10;  A 1.30 0.20 -8.6 0 0 304.11 172.49&#10;  L 313.75 170.33&#10;  A 2.13 1.31 -40.1 0 1 314.08 170.28&#10;  C 319.20 169.86 323.75 168.49 328.81 168.02&#10;  C 333.64 167.58 341.59 166.23 348.09 166.09&#10;  C 356.50 165.91 364.69 165.12 373.26 165.54&#10;  Q 383.84 166.05 384.64 166.04&#10;  Q 390.03 166.03 393.34 166.67&#10;  Q 393.94 166.79 402.03 167.62&#10;  C 407.53 168.18 413.82 169.56 419.54 170.47&#10;  Q 426.61 171.59 440.71 176.31&#10;  Z"/>
<path fill="#4e7f8e" fill-opacity="0.992" d="&#10;  M 173.38 166.99&#10;  Q 169.38 176.78 164.91 186.20&#10;  C 160.89 194.68 152.59 200.01 143.84 202.93&#10;  Q 136.08 205.52 134.82 205.79&#10;  Q 129.53 206.90 128.66 207.37&#10;  A 3.86 3.83 28.2 0 1 127.05 207.85&#10;  Q 123.75 208.08 119.28 209.52&#10;  A 7.07 6.28 -54.7 0 1 118.21 209.77&#10;  L 107.24 211.30&#10;  A 0.98 0.98 0.0 0 1 106.19 209.97&#10;  L 118.00 180.19&#10;  Q 133.55 176.77 149.18 174.24&#10;  Q 161.64 172.23 173.38 166.99&#10;  Z"/>
<path fill="#4b7389" fill-opacity="0.992" d="&#10;  M 22.43 261.83&#10;  C 30.56 259.92 38.46 258.10 46.87 256.59&#10;  C 138.66 240.10 233.79 222.30 321.44 206.40&#10;  C 334.63 204.01 347.62 202.76 358.95 201.86&#10;  C 383.84 199.89 408.07 193.07 430.55 182.52&#10;  Q 433.72 181.03 440.71 176.31&#10;  Q 466.80 184.53 489.06 200.17&#10;  Q 490.35 201.08 491.41 202.34&#10;  A 0.16 0.16 0.0 0 1 491.25 202.59&#10;  Q 474.16 197.80 466.17 196.41&#10;  Q 461.28 195.56 453.08 194.62&#10;  C 443.55 193.52 432.61 193.93 423.84 193.97&#10;  Q 420.52 193.98 417.69 194.41&#10;  C 414.56 194.88 411.86 194.62 409.46 195.30&#10;  C 406.29 196.19 402.27 195.89 398.52 196.69&#10;  Q 394.79 197.50 392.26 197.87&#10;  Q 389.31 198.30 385.98 199.02&#10;  Q 355.20 205.68 325.95 216.06&#10;  C 318.56 218.68 312.09 221.67 305.19 224.57&#10;  Q 300.25 226.65 296.97 228.22&#10;  Q 249.07 251.14 220.75 262.96&#10;  Q 199.95 271.65 182.43 277.88&#10;  Q 176.86 279.87 160.44 285.05&#10;  C 157.90 285.85 154.91 286.33 152.40 287.42&#10;  A 5.64 5.64 0.0 0 1 150.86 287.84&#10;  Q 147.60 288.26 144.08 289.53&#10;  A 5.61 5.45 31.1 0 1 142.65 289.86&#10;  Q 139.49 290.19 135.26 291.58&#10;  Q 135.18 291.60 135.10 291.62&#10;  L 123.08 293.88&#10;  A 2.71 2.11 33.6 0 1 122.69 293.91&#10;  Q 119.79 293.92 118.18 294.25&#10;  Q 115.25 294.86 114.15 294.86&#10;  C 108.17 294.86 100.23 296.16 93.28 295.73&#10;  Q 84.17 295.17 80.64 294.53&#10;  Q 77.17 293.91 75.30 293.83&#10;  A 7.32 7.00 -34.4 0 1 73.66 293.56&#10;  C 70.36 292.58 67.23 292.04 64.48 291.14&#10;  Q 39.15 282.91 22.43 261.83&#10;  Z"/>
<path fill="#41597a" fill-opacity="0.992" d="&#10;  M 402.34 254.42&#10;  Q 385.20 262.07 366.76 264.70&#10;  Q 340.22 268.49 313.64 272.01&#10;  Q 317.49 254.68 328.31 241.32&#10;  Q 331.68 237.16 336.14 233.62&#10;  Q 348.20 224.02 363.40 218.89&#10;  Q 373.63 215.43 384.78 213.40&#10;  A 2.63 2.63 0.0 0 1 387.72 215.07&#10;  L 402.34 254.42&#10;  Z"/>
<path fill="#374160" fill-opacity="0.992" d="&#10;  M 430.76 327.67&#10;  Q 422.64 331.12 417.08 332.52&#10;  Q 372.81 343.69 327.22 346.27&#10;  Q 320.33 331.41 316.14 317.39&#10;  Q 311.25 301.05 312.04 283.52&#10;  Q 312.16 280.83 312.65 277.75&#10;  Q 313.12 274.89 313.64 272.01&#10;  Q 340.22 268.49 366.76 264.70&#10;  Q 385.20 262.07 402.34 254.42&#10;  Q 412.69 281.98 423.10 309.43&#10;  Q 425.15 314.84 430.76 327.67&#10;  Z"/>
<path fill="#605687" fill-opacity="0.996" d="&#10;  M 109.27 312.85&#10;  Q 108.92 314.82 107.57 316.86&#10;  A 3.47 2.92 -21.7 0 0 107.27 317.42&#10;  Q 87.15 367.31 76.16 391.95&#10;  C 73.42 398.08 68.10 398.99 61.48 398.98&#10;  Q 49.38 398.96 37.25 399.12&#10;  Q 34.37 399.16 32.70 396.72&#10;  C 31.54 395.02 32.38 392.65 33.09 391.07&#10;  C 36.11 384.38 38.61 377.48 40.87 371.85&#10;  Q 55.39 335.72 65.02 311.51&#10;  Q 65.98 309.10 66.37 308.66&#10;  A 1.50 1.49 -73.2 0 1 67.26 308.18&#10;  C 69.51 307.85 71.75 309.18 73.70 309.15&#10;  Q 76.08 309.11 78.17 309.76&#10;  A 5.51 5.40 53.3 0 0 79.70 310.00&#10;  C 84.18 310.03 88.02 311.03 92.51 311.12&#10;  Q 99.68 311.27 107.81 311.14&#10;  A 1.46 1.46 0.0 0 1 109.27 312.85&#10;  Z"/>
<path fill="#2e3148" fill-opacity="0.992" d="&#10;  M 439.84 345.43&#10;  Q 427.66 349.09 419.25 350.93&#10;  Q 380.18 359.50 336.99 365.07&#10;  L 327.22 346.27&#10;  Q 372.81 343.69 417.08 332.52&#10;  Q 422.64 331.12 430.76 327.67&#10;  L 439.84 345.43&#10;  Z"/>
<path fill="#2b2935" fill-opacity="0.992" d="&#10;  M 336.99 365.07&#10;  Q 380.18 359.50 419.25 350.93&#10;  Q 427.66 349.09 439.84 345.43&#10;  Q 446.22 355.99 453.87 365.64&#10;  Q 459.99 373.37 466.77 379.18&#10;  Q 469.46 381.48 473.24 383.41&#10;  Q 476.85 385.24 485.64 388.48&#10;  Q 487.90 389.31 489.07 391.02&#10;  Q 491.06 393.95 488.55 397.12&#10;  A 3.01 3.01 0.0 0 1 487.55 397.94&#10;  Q 485.01 399.24 480.76 399.25&#10;  Q 391.74 399.48 375.75 399.51&#10;  C 367.68 399.52 359.05 400.47 353.83 392.91&#10;  Q 345.50 380.83 336.99 365.07&#10;  Z"/>
</svg>